<mxfile host="app.diagrams.net" agent="Mozilla/5.0 (Windows NT 10.0; Win64; x64) AppleWebKit/537.36 (KHTML, like Gecko) Chrome/130.0.0.0 Safari/537.36" version="24.8.3" pages="3">
  <diagram name="load()" id="13e1069c-82ec-6db2-03f1-153e76fe0fe0">
    <mxGraphModel dx="861" dy="440" grid="1" gridSize="10" guides="1" tooltips="1" connect="1" arrows="1" fold="1" page="1" pageScale="1" pageWidth="1100" pageHeight="850" background="none" math="0" shadow="0">
      <root>
        <mxCell id="0" />
        <mxCell id="1" parent="0" />
        <mxCell id="7baba1c4bc27f4b0-2" value=":Storage" style="shape=umlLifeline;perimeter=lifelinePerimeter;whiteSpace=wrap;html=1;container=1;collapsible=0;recursiveResize=0;outlineConnect=0;rounded=1;shadow=0;comic=0;labelBackgroundColor=none;strokeWidth=1;fontFamily=Verdana;fontSize=12;align=center;" parent="1" vertex="1">
          <mxGeometry x="260" y="135" width="100" height="505" as="geometry" />
        </mxCell>
        <mxCell id="7baba1c4bc27f4b0-10" value="" style="html=1;points=[];perimeter=orthogonalPerimeter;rounded=0;shadow=0;comic=0;labelBackgroundColor=none;strokeWidth=1;fontFamily=Verdana;fontSize=12;align=center;" parent="7baba1c4bc27f4b0-2" vertex="1">
          <mxGeometry x="45" y="40" width="10" height="250" as="geometry" />
        </mxCell>
        <mxCell id="PVHJ7KxA7nmS4XBwmIQY-6" value="" style="html=1;points=[];perimeter=orthogonalPerimeter;rounded=0;shadow=0;comic=0;labelBackgroundColor=none;strokeWidth=1;fontFamily=Verdana;fontSize=12;align=center;" parent="7baba1c4bc27f4b0-2" vertex="1">
          <mxGeometry x="45" y="325" width="10" height="40" as="geometry" />
        </mxCell>
        <mxCell id="PVHJ7KxA7nmS4XBwmIQY-8" value="incomes: IncomeList" style="html=1;verticalAlign=bottom;endArrow=classic;dashed=1;endSize=8;labelBackgroundColor=none;fontFamily=Verdana;fontSize=12;edgeStyle=elbowEdgeStyle;elbow=horizontal;endFill=1;" parent="7baba1c4bc27f4b0-2" edge="1">
          <mxGeometry relative="1" as="geometry">
            <mxPoint x="-104.97619047619048" y="365" as="targetPoint" />
            <Array as="points">
              <mxPoint x="-5" y="365" />
              <mxPoint x="25" y="365" />
            </Array>
            <mxPoint x="50" y="365" as="sourcePoint" />
          </mxGeometry>
        </mxCell>
        <mxCell id="PVHJ7KxA7nmS4XBwmIQY-9" value="" style="html=1;points=[];perimeter=orthogonalPerimeter;rounded=0;shadow=0;comic=0;labelBackgroundColor=none;strokeWidth=1;fontFamily=Verdana;fontSize=12;align=center;" parent="7baba1c4bc27f4b0-2" vertex="1">
          <mxGeometry x="45" y="405" width="10" height="35" as="geometry" />
        </mxCell>
        <mxCell id="PVHJ7KxA7nmS4XBwmIQY-10" value="getSpendings()" style="html=1;verticalAlign=bottom;endArrow=block;labelBackgroundColor=none;fontFamily=Verdana;fontSize=12;edgeStyle=elbowEdgeStyle;elbow=vertical;" parent="7baba1c4bc27f4b0-2" edge="1">
          <mxGeometry relative="1" as="geometry">
            <mxPoint x="-110.5" y="405" as="sourcePoint" />
            <mxPoint x="45" y="405" as="targetPoint" />
          </mxGeometry>
        </mxCell>
        <mxCell id="PVHJ7KxA7nmS4XBwmIQY-7" value="getIncomes()" style="html=1;verticalAlign=bottom;endArrow=block;labelBackgroundColor=none;fontFamily=Verdana;fontSize=12;edgeStyle=elbowEdgeStyle;elbow=vertical;" parent="7baba1c4bc27f4b0-2" edge="1">
          <mxGeometry relative="1" as="geometry">
            <mxPoint x="-110.5" y="325" as="sourcePoint" />
            <mxPoint x="45" y="325" as="targetPoint" />
          </mxGeometry>
        </mxCell>
        <mxCell id="PVHJ7KxA7nmS4XBwmIQY-24" value="return" style="html=1;verticalAlign=bottom;endArrow=classic;dashed=1;labelBackgroundColor=none;fontFamily=Verdana;fontSize=12;edgeStyle=elbowEdgeStyle;elbow=vertical;endFill=1;" parent="7baba1c4bc27f4b0-2" edge="1">
          <mxGeometry relative="1" as="geometry">
            <mxPoint x="55" y="105" as="targetPoint" />
            <Array as="points">
              <mxPoint x="140" y="105" />
              <mxPoint x="170" y="105" />
            </Array>
            <mxPoint x="195" y="105" as="sourcePoint" />
          </mxGeometry>
        </mxCell>
        <mxCell id="PVHJ7KxA7nmS4XBwmIQY-25" value="return" style="html=1;verticalAlign=bottom;endArrow=classic;dashed=1;endSize=8;labelBackgroundColor=none;fontFamily=Verdana;fontSize=12;edgeStyle=elbowEdgeStyle;elbow=vertical;endFill=1;" parent="7baba1c4bc27f4b0-2" source="PVHJ7KxA7nmS4XBwmIQY-17" edge="1">
          <mxGeometry relative="1" as="geometry">
            <mxPoint x="55" y="175" as="targetPoint" />
            <Array as="points">
              <mxPoint x="130" y="175" />
              <mxPoint x="160" y="175" />
            </Array>
            <mxPoint x="185" y="175" as="sourcePoint" />
          </mxGeometry>
        </mxCell>
        <mxCell id="PVHJ7KxA7nmS4XBwmIQY-29" value="return" style="html=1;verticalAlign=bottom;endArrow=classic;dashed=1;endSize=8;labelBackgroundColor=none;fontFamily=Verdana;fontSize=12;edgeStyle=elbowEdgeStyle;elbow=vertical;endFill=1;" parent="7baba1c4bc27f4b0-2" edge="1">
          <mxGeometry relative="1" as="geometry">
            <mxPoint x="55" y="286" as="targetPoint" />
            <Array as="points">
              <mxPoint x="270.5" y="286" />
              <mxPoint x="300.5" y="286" />
            </Array>
            <mxPoint x="489.5" y="286" as="sourcePoint" />
          </mxGeometry>
        </mxCell>
        <mxCell id="7baba1c4bc27f4b0-3" value="&amp;lt;&amp;lt;class&amp;gt;&amp;gt;&lt;br&gt;:IncomeListStorage" style="shape=umlLifeline;perimeter=lifelinePerimeter;whiteSpace=wrap;html=1;container=1;collapsible=0;recursiveResize=0;outlineConnect=0;rounded=1;shadow=0;comic=0;labelBackgroundColor=none;strokeWidth=1;fontFamily=Verdana;fontSize=12;align=center;" parent="1" vertex="1">
          <mxGeometry x="390" y="80" width="130" height="560" as="geometry" />
        </mxCell>
        <mxCell id="PVHJ7KxA7nmS4XBwmIQY-16" value="" style="html=1;points=[];perimeter=orthogonalPerimeter;rounded=0;shadow=0;comic=0;labelBackgroundColor=none;strokeWidth=1;fontFamily=Verdana;fontSize=12;align=center;" parent="7baba1c4bc27f4b0-3" vertex="1">
          <mxGeometry x="60" y="120" width="10" height="40" as="geometry" />
        </mxCell>
        <mxCell id="PVHJ7KxA7nmS4XBwmIQY-15" value="load()" style="html=1;verticalAlign=bottom;endArrow=block;labelBackgroundColor=none;fontFamily=Verdana;fontSize=12;edgeStyle=elbowEdgeStyle;elbow=vertical;exitX=1.02;exitY=0.103;exitDx=0;exitDy=0;exitPerimeter=0;" parent="7baba1c4bc27f4b0-3" source="7baba1c4bc27f4b0-10" edge="1">
          <mxGeometry relative="1" as="geometry">
            <mxPoint x="-70" y="120" as="sourcePoint" />
            <mxPoint x="60" y="120" as="targetPoint" />
            <Array as="points" />
          </mxGeometry>
        </mxCell>
        <mxCell id="7baba1c4bc27f4b0-8" value=":Wiagi" style="shape=umlLifeline;perimeter=lifelinePerimeter;whiteSpace=wrap;html=1;container=1;collapsible=0;recursiveResize=0;outlineConnect=0;rounded=1;shadow=0;comic=0;labelBackgroundColor=none;strokeWidth=1;fontFamily=Verdana;fontSize=12;align=center;" parent="1" vertex="1">
          <mxGeometry x="100" y="80" width="100" height="560" as="geometry" />
        </mxCell>
        <mxCell id="PVHJ7KxA7nmS4XBwmIQY-11" value="spendings: SpendingList" style="html=1;verticalAlign=bottom;endArrow=classic;dashed=1;endSize=8;labelBackgroundColor=none;fontFamily=Verdana;fontSize=12;edgeStyle=elbowEdgeStyle;elbow=horizontal;entryX=1.024;entryY=0.927;entryDx=0;entryDy=0;entryPerimeter=0;endFill=1;" parent="7baba1c4bc27f4b0-8" target="PVHJ7KxA7nmS4XBwmIQY-30" edge="1">
          <mxGeometry relative="1" as="geometry">
            <mxPoint x="49.5" y="495" as="targetPoint" />
            <Array as="points">
              <mxPoint x="150" y="495" />
              <mxPoint x="180" y="495" />
            </Array>
            <mxPoint x="205" y="495" as="sourcePoint" />
          </mxGeometry>
        </mxCell>
        <mxCell id="PVHJ7KxA7nmS4XBwmIQY-30" value="" style="html=1;points=[];perimeter=orthogonalPerimeter;rounded=0;shadow=0;comic=0;labelBackgroundColor=none;strokeWidth=1;fontFamily=Verdana;fontSize=12;align=center;" parent="7baba1c4bc27f4b0-8" vertex="1">
          <mxGeometry x="45" y="40" width="10" height="490" as="geometry" />
        </mxCell>
        <mxCell id="7baba1c4bc27f4b0-11" value="Storage()" style="html=1;verticalAlign=bottom;endArrow=block;labelBackgroundColor=none;fontFamily=Verdana;fontSize=12;edgeStyle=elbowEdgeStyle;elbow=vertical;" parent="7baba1c4bc27f4b0-8" edge="1">
          <mxGeometry relative="1" as="geometry">
            <mxPoint x="55" y="70" as="sourcePoint" />
            <mxPoint x="160" y="70" as="targetPoint" />
          </mxGeometry>
        </mxCell>
        <mxCell id="PVHJ7KxA7nmS4XBwmIQY-17" value="&amp;lt;&amp;lt;class&amp;gt;&amp;gt;&lt;br&gt;:SpendingListStorage" style="shape=umlLifeline;perimeter=lifelinePerimeter;whiteSpace=wrap;html=1;container=1;collapsible=0;recursiveResize=0;outlineConnect=0;rounded=1;shadow=0;comic=0;labelBackgroundColor=none;strokeWidth=1;fontFamily=Verdana;fontSize=12;align=center;" parent="1" vertex="1">
          <mxGeometry x="530" y="80" width="140" height="560" as="geometry" />
        </mxCell>
        <mxCell id="PVHJ7KxA7nmS4XBwmIQY-19" value="" style="html=1;points=[];perimeter=orthogonalPerimeter;rounded=0;shadow=0;comic=0;labelBackgroundColor=none;strokeWidth=1;fontFamily=Verdana;fontSize=12;align=center;" parent="PVHJ7KxA7nmS4XBwmIQY-17" vertex="1">
          <mxGeometry x="65" y="190" width="10" height="40" as="geometry" />
        </mxCell>
        <mxCell id="PVHJ7KxA7nmS4XBwmIQY-21" value="&amp;lt;&amp;lt;class&amp;gt;&amp;gt;&lt;br&gt;:LoginStorage" style="shape=umlLifeline;perimeter=lifelinePerimeter;whiteSpace=wrap;html=1;container=1;collapsible=0;recursiveResize=0;outlineConnect=0;rounded=1;shadow=0;comic=0;labelBackgroundColor=none;strokeWidth=1;fontFamily=Verdana;fontSize=12;align=center;" parent="1" vertex="1">
          <mxGeometry x="680" y="80" width="140" height="560" as="geometry" />
        </mxCell>
        <mxCell id="PVHJ7KxA7nmS4XBwmIQY-22" value="" style="html=1;points=[];perimeter=orthogonalPerimeter;rounded=0;shadow=0;comic=0;labelBackgroundColor=none;strokeWidth=1;fontFamily=Verdana;fontSize=12;align=center;" parent="PVHJ7KxA7nmS4XBwmIQY-21" vertex="1">
          <mxGeometry x="70" y="280" width="10" height="60" as="geometry" />
        </mxCell>
        <mxCell id="PVHJ7KxA7nmS4XBwmIQY-27" value="ref" style="shape=umlFrame;whiteSpace=wrap;html=1;pointerEvents=0;width=30;height=20;" parent="1" vertex="1">
          <mxGeometry x="700" y="370" width="110" height="40" as="geometry" />
        </mxCell>
        <mxCell id="PVHJ7KxA7nmS4XBwmIQY-28" value="&lt;div style=&quot;text-align: center;&quot;&gt;&lt;span style=&quot;background-color: initial; text-wrap-mode: nowrap;&quot;&gt;&lt;font face=&quot;Verdana&quot;&gt;Login&lt;/font&gt;&lt;/span&gt;&lt;/div&gt;" style="text;whiteSpace=wrap;html=1;" parent="1" vertex="1">
          <mxGeometry x="760" y="370" width="70" height="20" as="geometry" />
        </mxCell>
        <mxCell id="PVHJ7KxA7nmS4XBwmIQY-18" value="load()" style="html=1;verticalAlign=bottom;endArrow=block;labelBackgroundColor=none;fontFamily=Verdana;fontSize=12;edgeStyle=elbowEdgeStyle;elbow=vertical;exitX=0.972;exitY=0.383;exitDx=0;exitDy=0;exitPerimeter=0;entryX=-0.028;entryY=0.012;entryDx=0;entryDy=0;entryPerimeter=0;" parent="1" source="7baba1c4bc27f4b0-10" target="PVHJ7KxA7nmS4XBwmIQY-19" edge="1">
          <mxGeometry relative="1" as="geometry">
            <mxPoint x="330" y="270" as="sourcePoint" />
            <mxPoint x="590" y="270" as="targetPoint" />
            <Array as="points" />
          </mxGeometry>
        </mxCell>
        <mxCell id="PVHJ7KxA7nmS4XBwmIQY-23" value="load()" style="html=1;verticalAlign=bottom;endArrow=block;labelBackgroundColor=none;fontFamily=Verdana;fontSize=12;edgeStyle=elbowEdgeStyle;elbow=vertical;exitX=1.067;exitY=0.74;exitDx=0;exitDy=0;exitPerimeter=0;entryX=0.005;entryY=0;entryDx=0;entryDy=0;entryPerimeter=0;" parent="1" source="7baba1c4bc27f4b0-10" target="PVHJ7KxA7nmS4XBwmIQY-22" edge="1">
          <mxGeometry relative="1" as="geometry">
            <mxPoint x="320" y="360" as="sourcePoint" />
            <mxPoint x="744" y="360" as="targetPoint" />
            <Array as="points">
              <mxPoint x="380.5" y="360" />
              <mxPoint x="536" y="355" />
            </Array>
          </mxGeometry>
        </mxCell>
        <mxCell id="PeQt3cziREx71TBvpHOI-4" value="&lt;div style=&quot;&quot;&gt;Update password in Storage&lt;/div&gt;" style="shape=note2;boundedLbl=1;whiteSpace=wrap;html=1;size=25;verticalAlign=bottom;align=center;flipH=0;flipV=1;" parent="1" vertex="1">
          <mxGeometry x="850" y="362.5" width="160" height="55" as="geometry" />
        </mxCell>
        <mxCell id="PeQt3cziREx71TBvpHOI-7" value="" style="endArrow=none;dashed=1;html=1;dashPattern=1 3;strokeWidth=2;rounded=0;exitX=1;exitY=0.494;exitDx=0;exitDy=0;exitPerimeter=0;" parent="1" source="PVHJ7KxA7nmS4XBwmIQY-19" edge="1">
          <mxGeometry width="50" height="50" relative="1" as="geometry">
            <mxPoint x="610" y="290" as="sourcePoint" />
            <mxPoint x="849.9999999999998" y="289.93294117647065" as="targetPoint" />
          </mxGeometry>
        </mxCell>
        <mxCell id="PeQt3cziREx71TBvpHOI-8" value="" style="endArrow=none;dashed=1;html=1;dashPattern=1 3;strokeWidth=2;rounded=0;" parent="1" target="PeQt3cziREx71TBvpHOI-4" edge="1">
          <mxGeometry width="50" height="50" relative="1" as="geometry">
            <mxPoint x="810" y="390" as="sourcePoint" />
            <mxPoint x="830" y="410" as="targetPoint" />
          </mxGeometry>
        </mxCell>
        <mxCell id="PeQt3cziREx71TBvpHOI-9" value="Update incomes in Storage" style="shape=note2;boundedLbl=1;whiteSpace=wrap;html=1;size=25;verticalAlign=bottom;align=center;flipV=1;" parent="1" vertex="1">
          <mxGeometry x="850" y="190" width="160" height="55" as="geometry" />
        </mxCell>
        <mxCell id="PeQt3cziREx71TBvpHOI-10" value="Update spendings in Storage" style="shape=note2;boundedLbl=1;whiteSpace=wrap;html=1;size=25;verticalAlign=bottom;align=center;flipV=1;" parent="1" vertex="1">
          <mxGeometry x="850" y="270" width="160" height="55" as="geometry" />
        </mxCell>
        <mxCell id="PeQt3cziREx71TBvpHOI-5" value="" style="endArrow=none;dashed=1;html=1;dashPattern=1 3;strokeWidth=2;rounded=0;entryX=0.013;entryY=0.645;entryDx=0;entryDy=0;entryPerimeter=0;" parent="1" edge="1">
          <mxGeometry width="50" height="50" relative="1" as="geometry">
            <mxPoint x="460" y="217" as="sourcePoint" />
            <mxPoint x="850.0000000000001" y="218.21500000000003" as="targetPoint" />
          </mxGeometry>
        </mxCell>
        <mxCell id="L1_Ep6wxxz3Eg0I4ZJVs-1" value="return" style="html=1;verticalAlign=bottom;endArrow=classic;dashed=1;endSize=8;labelBackgroundColor=none;fontFamily=Verdana;fontSize=12;edgeStyle=elbowEdgeStyle;elbow=vertical;endFill=1;" parent="1" edge="1">
          <mxGeometry relative="1" as="geometry">
            <mxPoint x="156.0038095238095" y="425" as="targetPoint" />
            <Array as="points">
              <mxPoint x="255.98000000000002" y="425" />
              <mxPoint x="285.98" y="425" />
            </Array>
            <mxPoint x="310.98" y="425" as="sourcePoint" />
          </mxGeometry>
        </mxCell>
      </root>
    </mxGraphModel>
  </diagram>
  <diagram id="Q-i3nZ6V6cUgrlpDoZkg" name="save()">
    <mxGraphModel dx="11" dy="440" grid="1" gridSize="10" guides="1" tooltips="1" connect="1" arrows="1" fold="1" page="1" pageScale="1" pageWidth="850" pageHeight="1100" math="0" shadow="0">
      <root>
        <mxCell id="0" />
        <mxCell id="1" parent="0" />
        <mxCell id="5LU0Q3dUXCaiztFAGEs7-1" value=":Storage" style="shape=umlLifeline;perimeter=lifelinePerimeter;whiteSpace=wrap;html=1;container=1;collapsible=0;recursiveResize=0;outlineConnect=0;rounded=1;shadow=0;comic=0;labelBackgroundColor=none;strokeWidth=1;fontFamily=Verdana;fontSize=12;align=center;" parent="1" vertex="1">
          <mxGeometry x="1070" y="160" width="100" height="520" as="geometry" />
        </mxCell>
        <mxCell id="5LU0Q3dUXCaiztFAGEs7-2" value="" style="html=1;points=[];perimeter=orthogonalPerimeter;rounded=0;shadow=0;comic=0;labelBackgroundColor=none;strokeWidth=1;fontFamily=Verdana;fontSize=12;align=center;" parent="5LU0Q3dUXCaiztFAGEs7-1" vertex="1">
          <mxGeometry x="45" y="110" width="10" height="380" as="geometry" />
        </mxCell>
        <mxCell id="5LU0Q3dUXCaiztFAGEs7-3" value="save(incomes: IncomeList)" style="html=1;verticalAlign=bottom;endArrow=block;labelBackgroundColor=none;fontFamily=Verdana;fontSize=12;edgeStyle=elbowEdgeStyle;elbow=vertical;entryX=0.043;entryY=0.001;entryDx=0;entryDy=0;entryPerimeter=0;" parent="5LU0Q3dUXCaiztFAGEs7-1" target="5LU0Q3dUXCaiztFAGEs7-7" edge="1">
          <mxGeometry relative="1" as="geometry">
            <mxPoint x="55" y="130" as="sourcePoint" />
            <mxPoint x="200" y="129" as="targetPoint" />
          </mxGeometry>
        </mxCell>
        <mxCell id="QJ4ml_JFEBUYPNP4nYRD-3" value="save(spendings: SpendingList)" style="html=1;verticalAlign=bottom;endArrow=block;labelBackgroundColor=none;fontFamily=Verdana;fontSize=12;edgeStyle=elbowEdgeStyle;elbow=vertical;entryX=-0.156;entryY=-0.001;entryDx=0;entryDy=0;entryPerimeter=0;" parent="5LU0Q3dUXCaiztFAGEs7-1" edge="1">
          <mxGeometry relative="1" as="geometry">
            <mxPoint x="56" y="330" as="sourcePoint" />
            <mxPoint x="384.44000000000005" y="328.85" as="targetPoint" />
          </mxGeometry>
        </mxCell>
        <mxCell id="5LU0Q3dUXCaiztFAGEs7-6" value=":IncomeListStorage" style="shape=umlLifeline;perimeter=lifelinePerimeter;whiteSpace=wrap;html=1;container=1;collapsible=0;recursiveResize=0;outlineConnect=0;rounded=1;shadow=0;comic=0;labelBackgroundColor=none;strokeWidth=1;fontFamily=Verdana;fontSize=12;align=center;" parent="1" vertex="1">
          <mxGeometry x="1250" y="160" width="130" height="520" as="geometry" />
        </mxCell>
        <mxCell id="5LU0Q3dUXCaiztFAGEs7-7" value="" style="html=1;points=[];perimeter=orthogonalPerimeter;rounded=0;shadow=0;comic=0;labelBackgroundColor=none;strokeWidth=1;fontFamily=Verdana;fontSize=12;align=center;" parent="5LU0Q3dUXCaiztFAGEs7-6" vertex="1">
          <mxGeometry x="60" y="130" width="10" height="150" as="geometry" />
        </mxCell>
        <mxCell id="5LU0Q3dUXCaiztFAGEs7-4" value="return" style="html=1;verticalAlign=bottom;endArrow=open;dashed=1;endSize=8;labelBackgroundColor=none;fontFamily=Verdana;fontSize=12;edgeStyle=elbowEdgeStyle;elbow=vertical;" parent="5LU0Q3dUXCaiztFAGEs7-6" edge="1">
          <mxGeometry relative="1" as="geometry">
            <mxPoint x="-124.90000000000009" y="280" as="targetPoint" />
            <Array as="points">
              <mxPoint x="-14.550000000000011" y="280" />
            </Array>
            <mxPoint x="65" y="280" as="sourcePoint" />
          </mxGeometry>
        </mxCell>
        <mxCell id="KUTcS2s6ScAVzmex-uaR-7" value=":IncomeListStorage" style="shape=umlLifeline;perimeter=lifelinePerimeter;whiteSpace=wrap;html=1;container=1;collapsible=0;recursiveResize=0;outlineConnect=0;rounded=1;shadow=0;comic=0;labelBackgroundColor=none;strokeWidth=1;fontFamily=Verdana;fontSize=12;align=center;" parent="5LU0Q3dUXCaiztFAGEs7-6" vertex="1">
          <mxGeometry width="130" height="520" as="geometry" />
        </mxCell>
        <mxCell id="KUTcS2s6ScAVzmex-uaR-8" value="" style="html=1;points=[];perimeter=orthogonalPerimeter;rounded=0;shadow=0;comic=0;labelBackgroundColor=none;strokeWidth=1;fontFamily=Verdana;fontSize=12;align=center;" parent="KUTcS2s6ScAVzmex-uaR-7" vertex="1">
          <mxGeometry x="60" y="130" width="10" height="150" as="geometry" />
        </mxCell>
        <mxCell id="KUTcS2s6ScAVzmex-uaR-9" value="return" style="html=1;verticalAlign=bottom;endArrow=open;dashed=1;endSize=8;labelBackgroundColor=none;fontFamily=Verdana;fontSize=12;edgeStyle=elbowEdgeStyle;elbow=vertical;" parent="KUTcS2s6ScAVzmex-uaR-7" edge="1">
          <mxGeometry relative="1" as="geometry">
            <mxPoint x="-124.90000000000009" y="280" as="targetPoint" />
            <Array as="points">
              <mxPoint x="-14.550000000000011" y="280" />
            </Array>
            <mxPoint x="65" y="280" as="sourcePoint" />
          </mxGeometry>
        </mxCell>
        <mxCell id="KUTcS2s6ScAVzmex-uaR-1" value="&amp;lt;&amp;lt;class&amp;gt;&amp;gt;&lt;br&gt;:IncomeListStorage" style="shape=umlLifeline;perimeter=lifelinePerimeter;whiteSpace=wrap;html=1;container=1;collapsible=0;recursiveResize=0;outlineConnect=0;rounded=1;shadow=0;comic=0;labelBackgroundColor=none;strokeWidth=1;fontFamily=Verdana;fontSize=12;align=center;" parent="5LU0Q3dUXCaiztFAGEs7-6" vertex="1">
          <mxGeometry width="130" height="520" as="geometry" />
        </mxCell>
        <mxCell id="KUTcS2s6ScAVzmex-uaR-2" value="" style="html=1;points=[];perimeter=orthogonalPerimeter;rounded=0;shadow=0;comic=0;labelBackgroundColor=none;strokeWidth=1;fontFamily=Verdana;fontSize=12;align=center;" parent="KUTcS2s6ScAVzmex-uaR-1" vertex="1">
          <mxGeometry x="60" y="130" width="10" height="150" as="geometry" />
        </mxCell>
        <mxCell id="KUTcS2s6ScAVzmex-uaR-3" value="return" style="html=1;verticalAlign=bottom;endArrow=classic;dashed=1;endSize=8;labelBackgroundColor=none;fontFamily=Verdana;fontSize=12;edgeStyle=elbowEdgeStyle;elbow=vertical;endFill=1;" parent="KUTcS2s6ScAVzmex-uaR-1" edge="1">
          <mxGeometry relative="1" as="geometry">
            <mxPoint x="-124.90000000000009" y="280" as="targetPoint" />
            <Array as="points">
              <mxPoint x="-14.550000000000011" y="280" />
            </Array>
            <mxPoint x="65" y="280" as="sourcePoint" />
          </mxGeometry>
        </mxCell>
        <mxCell id="5LU0Q3dUXCaiztFAGEs7-9" value="&amp;lt;&amp;lt;class&amp;gt;&amp;gt;&lt;br&gt;:SpendingListStorage" style="shape=umlLifeline;perimeter=lifelinePerimeter;whiteSpace=wrap;html=1;container=1;collapsible=0;recursiveResize=0;outlineConnect=0;rounded=1;shadow=0;comic=0;labelBackgroundColor=none;strokeWidth=1;fontFamily=Verdana;fontSize=12;align=center;" parent="1" vertex="1">
          <mxGeometry x="1390" y="160" width="140" height="520" as="geometry" />
        </mxCell>
        <mxCell id="Ljx_quWKq2piyPzTlaEf-5" value="FileWriter(INCOMES_FILE_PATH)" style="html=1;verticalAlign=bottom;endArrow=block;labelBackgroundColor=none;fontFamily=Verdana;fontSize=12;edgeStyle=elbowEdgeStyle;elbow=vertical;exitX=1.071;exitY=0.13;exitDx=0;exitDy=0;exitPerimeter=0;" parent="5LU0Q3dUXCaiztFAGEs7-9" edge="1">
          <mxGeometry x="0.0029" relative="1" as="geometry">
            <mxPoint x="-69.28999999999996" y="137.5" as="sourcePoint" />
            <mxPoint x="148" y="138" as="targetPoint" />
            <mxPoint as="offset" />
          </mxGeometry>
        </mxCell>
        <mxCell id="5LU0Q3dUXCaiztFAGEs7-8" value="return" style="html=1;verticalAlign=bottom;endArrow=classic;dashed=1;endSize=8;labelBackgroundColor=none;fontFamily=Verdana;fontSize=12;edgeStyle=elbowEdgeStyle;elbow=vertical;endFill=1;" parent="5LU0Q3dUXCaiztFAGEs7-9" edge="1">
          <mxGeometry relative="1" as="geometry">
            <mxPoint x="-264.9000000000001" y="480" as="targetPoint" />
            <Array as="points">
              <mxPoint x="40" y="480" />
            </Array>
            <mxPoint x="65" y="480" as="sourcePoint" />
          </mxGeometry>
        </mxCell>
        <mxCell id="QJ4ml_JFEBUYPNP4nYRD-6" value="close()" style="html=1;verticalAlign=bottom;endArrow=block;labelBackgroundColor=none;fontFamily=Verdana;fontSize=12;edgeStyle=elbowEdgeStyle;elbow=vertical;" parent="5LU0Q3dUXCaiztFAGEs7-9" edge="1">
          <mxGeometry relative="1" as="geometry">
            <mxPoint x="-70" y="250" as="sourcePoint" />
            <mxPoint x="189.5" y="249.57142857142856" as="targetPoint" />
          </mxGeometry>
        </mxCell>
        <mxCell id="QJ4ml_JFEBUYPNP4nYRD-9" value="return" style="html=1;verticalAlign=bottom;endArrow=classic;dashed=1;endSize=8;labelBackgroundColor=none;fontFamily=Verdana;fontSize=12;edgeStyle=elbowEdgeStyle;elbow=vertical;endFill=1;entryX=1;entryY=0.587;entryDx=0;entryDy=0;entryPerimeter=0;" parent="5LU0Q3dUXCaiztFAGEs7-9" edge="1">
          <mxGeometry relative="1" as="geometry">
            <mxPoint x="-70" y="221.05000000000007" as="targetPoint" />
            <Array as="points">
              <mxPoint x="110.35000000000014" y="221" />
            </Array>
            <mxPoint x="189.9000000000001" y="221" as="sourcePoint" />
          </mxGeometry>
        </mxCell>
        <mxCell id="QJ4ml_JFEBUYPNP4nYRD-11" value="return" style="html=1;verticalAlign=bottom;endArrow=classic;dashed=1;endSize=8;labelBackgroundColor=none;fontFamily=Verdana;fontSize=12;edgeStyle=elbowEdgeStyle;elbow=vertical;endFill=1;entryX=1;entryY=0.587;entryDx=0;entryDy=0;entryPerimeter=0;" parent="5LU0Q3dUXCaiztFAGEs7-9" edge="1">
          <mxGeometry relative="1" as="geometry">
            <mxPoint x="-70" y="268.05000000000007" as="targetPoint" />
            <Array as="points">
              <mxPoint x="110.35000000000014" y="268" />
            </Array>
            <mxPoint x="189.9000000000001" y="268" as="sourcePoint" />
          </mxGeometry>
        </mxCell>
        <mxCell id="5LU0Q3dUXCaiztFAGEs7-11" value="save(incomes: IncomeList,&amp;nbsp;&lt;div&gt;spendings: Spending List)&lt;/div&gt;" style="html=1;verticalAlign=bottom;endArrow=block;labelBackgroundColor=none;fontFamily=Verdana;fontSize=12;edgeStyle=elbowEdgeStyle;elbow=vertical;" parent="1" target="5LU0Q3dUXCaiztFAGEs7-1" edge="1">
          <mxGeometry relative="1" as="geometry">
            <mxPoint x="920" y="270" as="sourcePoint" />
            <mxPoint x="1010" y="270" as="targetPoint" />
          </mxGeometry>
        </mxCell>
        <mxCell id="5LU0Q3dUXCaiztFAGEs7-13" value="" style="endArrow=none;dashed=1;html=1;rounded=0;" parent="1" edge="1">
          <mxGeometry width="50" height="50" relative="1" as="geometry">
            <mxPoint x="920" y="680" as="sourcePoint" />
            <mxPoint x="920" y="198" as="targetPoint" />
          </mxGeometry>
        </mxCell>
        <mxCell id="Ljx_quWKq2piyPzTlaEf-1" value=":FileWriter" style="shape=umlLifeline;perimeter=lifelinePerimeter;whiteSpace=wrap;html=1;container=1;collapsible=0;recursiveResize=0;outlineConnect=0;rounded=1;shadow=0;comic=0;labelBackgroundColor=none;strokeWidth=1;fontFamily=Verdana;fontSize=12;align=center;" parent="1" vertex="1">
          <mxGeometry x="1540" y="278" width="90" height="162" as="geometry" />
        </mxCell>
        <mxCell id="Ljx_quWKq2piyPzTlaEf-2" value="" style="html=1;points=[];perimeter=orthogonalPerimeter;rounded=0;shadow=0;comic=0;labelBackgroundColor=none;strokeWidth=1;fontFamily=Verdana;fontSize=12;align=center;" parent="Ljx_quWKq2piyPzTlaEf-1" vertex="1">
          <mxGeometry x="40" y="40" width="10" height="10" as="geometry" />
        </mxCell>
        <mxCell id="QJ4ml_JFEBUYPNP4nYRD-5" value="" style="html=1;points=[];perimeter=orthogonalPerimeter;rounded=0;shadow=0;comic=0;labelBackgroundColor=none;strokeWidth=1;fontFamily=Verdana;fontSize=12;align=center;" parent="Ljx_quWKq2piyPzTlaEf-1" vertex="1">
          <mxGeometry x="40" y="82" width="10" height="21" as="geometry" />
        </mxCell>
        <mxCell id="QJ4ml_JFEBUYPNP4nYRD-10" value="" style="html=1;points=[];perimeter=orthogonalPerimeter;rounded=0;shadow=0;comic=0;labelBackgroundColor=none;strokeWidth=1;fontFamily=Verdana;fontSize=12;align=center;" parent="Ljx_quWKq2piyPzTlaEf-1" vertex="1">
          <mxGeometry x="40" y="132" width="10" height="18" as="geometry" />
        </mxCell>
        <mxCell id="5LU0Q3dUXCaiztFAGEs7-5" value="return" style="html=1;verticalAlign=bottom;endArrow=classic;dashed=1;endSize=8;labelBackgroundColor=none;fontFamily=Verdana;fontSize=12;edgeStyle=elbowEdgeStyle;elbow=vertical;endFill=1;" parent="1" edge="1">
          <mxGeometry relative="1" as="geometry">
            <mxPoint x="919" y="650.06" as="targetPoint" />
            <Array as="points" />
            <mxPoint x="1114" y="650" as="sourcePoint" />
          </mxGeometry>
        </mxCell>
        <mxCell id="IYc5x8B6EfSkWGsZx37s-3" value="" style="shape=mxgraph.sysml.x;fillColor=#f8cecc;strokeColor=#b85450;" parent="1" vertex="1">
          <mxGeometry x="1580" y="435" width="10" height="10" as="geometry" />
        </mxCell>
        <mxCell id="IYc5x8B6EfSkWGsZx37s-9" value="" style="html=1;points=[];perimeter=orthogonalPerimeter;rounded=0;shadow=0;comic=0;labelBackgroundColor=none;strokeWidth=1;fontFamily=Verdana;fontSize=12;align=center;" parent="1" vertex="1">
          <mxGeometry x="1455" y="490" width="10" height="150" as="geometry" />
        </mxCell>
        <mxCell id="IYc5x8B6EfSkWGsZx37s-10" value="loop" style="shape=umlFrame;whiteSpace=wrap;html=1;pointerEvents=0;" parent="1" vertex="1">
          <mxGeometry x="1320" y="540" width="460" height="50" as="geometry" />
        </mxCell>
        <mxCell id="IYc5x8B6EfSkWGsZx37s-11" value="[spendings]" style="text;html=1;align=center;verticalAlign=middle;resizable=0;points=[];autosize=1;strokeColor=none;fillColor=none;" parent="1" vertex="1">
          <mxGeometry x="1380" y="540" width="80" height="30" as="geometry" />
        </mxCell>
        <mxCell id="IYc5x8B6EfSkWGsZx37s-12" value="FileWriter(SPENDINGS_FILE_PATH)" style="html=1;verticalAlign=bottom;endArrow=block;labelBackgroundColor=none;fontFamily=Verdana;fontSize=12;edgeStyle=elbowEdgeStyle;elbow=vertical;exitX=1;exitY=0.132;exitDx=0;exitDy=0;exitPerimeter=0;" parent="1" edge="1">
          <mxGeometry relative="1" as="geometry">
            <mxPoint x="1465" y="499.79999999999995" as="sourcePoint" />
            <mxPoint x="1689" y="500" as="targetPoint" />
          </mxGeometry>
        </mxCell>
        <mxCell id="IYc5x8B6EfSkWGsZx37s-13" value=":FileWriter" style="shape=umlLifeline;perimeter=lifelinePerimeter;whiteSpace=wrap;html=1;container=1;collapsible=0;recursiveResize=0;outlineConnect=0;rounded=1;shadow=0;comic=0;labelBackgroundColor=none;strokeWidth=1;fontFamily=Verdana;fontSize=12;align=center;" parent="1" vertex="1">
          <mxGeometry x="1690" y="479" width="90" height="161" as="geometry" />
        </mxCell>
        <mxCell id="IYc5x8B6EfSkWGsZx37s-14" value="" style="html=1;points=[];perimeter=orthogonalPerimeter;rounded=0;shadow=0;comic=0;labelBackgroundColor=none;strokeWidth=1;fontFamily=Verdana;fontSize=12;align=center;" parent="IYc5x8B6EfSkWGsZx37s-13" vertex="1">
          <mxGeometry x="40" y="40" width="10" height="10" as="geometry" />
        </mxCell>
        <mxCell id="QJ4ml_JFEBUYPNP4nYRD-7" value="" style="html=1;points=[];perimeter=orthogonalPerimeter;rounded=0;shadow=0;comic=0;labelBackgroundColor=none;strokeWidth=1;fontFamily=Verdana;fontSize=12;align=center;" parent="IYc5x8B6EfSkWGsZx37s-13" vertex="1">
          <mxGeometry x="40" y="81" width="10" height="19" as="geometry" />
        </mxCell>
        <mxCell id="ex-HV3NEJbvZ8xb9pAUJ-4" value="" style="html=1;points=[];perimeter=orthogonalPerimeter;rounded=0;shadow=0;comic=0;labelBackgroundColor=none;strokeWidth=1;fontFamily=Verdana;fontSize=12;align=center;" parent="IYc5x8B6EfSkWGsZx37s-13" vertex="1">
          <mxGeometry x="40" y="131" width="10" height="19" as="geometry" />
        </mxCell>
        <mxCell id="IYc5x8B6EfSkWGsZx37s-17" value="" style="shape=mxgraph.sysml.x;fillColor=#f8cecc;strokeColor=#b85450;" parent="1" vertex="1">
          <mxGeometry x="1730" y="640" width="10" height="10" as="geometry" />
        </mxCell>
        <mxCell id="IYc5x8B6EfSkWGsZx37s-15" value="write(spending: Spending)" style="html=1;verticalAlign=bottom;endArrow=block;labelBackgroundColor=none;fontFamily=Verdana;fontSize=12;edgeStyle=elbowEdgeStyle;elbow=vertical;entryX=0.089;entryY=0.288;entryDx=0;entryDy=0;entryPerimeter=0;exitX=0.933;exitY=0.462;exitDx=0;exitDy=0;exitPerimeter=0;" parent="1" edge="1">
          <mxGeometry relative="1" as="geometry">
            <mxPoint x="1464.33" y="560.3" as="sourcePoint" />
            <mxPoint x="1730.8899999999999" y="559.8" as="targetPoint" />
          </mxGeometry>
        </mxCell>
        <mxCell id="KUTcS2s6ScAVzmex-uaR-12" value="" style="endArrow=none;dashed=1;html=1;rounded=0;" parent="1" edge="1">
          <mxGeometry width="50" height="50" relative="1" as="geometry">
            <mxPoint x="920" y="680" as="sourcePoint" />
            <mxPoint x="920" y="198" as="targetPoint" />
          </mxGeometry>
        </mxCell>
        <mxCell id="Y0emdsJeOCApH0v6jR24-1" value="loop" style="shape=umlFrame;whiteSpace=wrap;html=1;pointerEvents=0;" parent="1" vertex="1">
          <mxGeometry x="1180" y="340" width="450" height="50" as="geometry" />
        </mxCell>
        <mxCell id="IYc5x8B6EfSkWGsZx37s-2" value="write(income: Income)" style="html=1;verticalAlign=bottom;endArrow=block;labelBackgroundColor=none;fontFamily=Verdana;fontSize=12;edgeStyle=elbowEdgeStyle;elbow=vertical;exitX=0.978;exitY=0.47;exitDx=0;exitDy=0;exitPerimeter=0;" parent="1" edge="1">
          <mxGeometry relative="1" as="geometry">
            <mxPoint x="1320" y="360.36" as="sourcePoint" />
            <mxPoint x="1580.22" y="360" as="targetPoint" />
          </mxGeometry>
        </mxCell>
        <mxCell id="KUTcS2s6ScAVzmex-uaR-5" value="[incomes]" style="text;html=1;align=center;verticalAlign=middle;resizable=0;points=[];autosize=1;strokeColor=none;fillColor=none;" parent="1" vertex="1">
          <mxGeometry x="1240" y="340" width="70" height="30" as="geometry" />
        </mxCell>
        <mxCell id="QJ4ml_JFEBUYPNP4nYRD-8" value="close()" style="html=1;verticalAlign=bottom;endArrow=block;labelBackgroundColor=none;fontFamily=Verdana;fontSize=12;edgeStyle=elbowEdgeStyle;elbow=vertical;exitX=1.022;exitY=0.801;exitDx=0;exitDy=0;exitPerimeter=0;" parent="1" source="IYc5x8B6EfSkWGsZx37s-9" edge="1">
          <mxGeometry relative="1" as="geometry">
            <mxPoint x="1470" y="610" as="sourcePoint" />
            <mxPoint x="1730.5000000000002" y="610.344827586207" as="targetPoint" />
          </mxGeometry>
        </mxCell>
        <mxCell id="ex-HV3NEJbvZ8xb9pAUJ-1" value="return" style="html=1;verticalAlign=bottom;endArrow=classic;dashed=1;endSize=8;labelBackgroundColor=none;fontFamily=Verdana;fontSize=12;edgeStyle=elbowEdgeStyle;elbow=vertical;endFill=1;entryX=1;entryY=0.587;entryDx=0;entryDy=0;entryPerimeter=0;" parent="1" edge="1">
          <mxGeometry relative="1" as="geometry">
            <mxPoint x="1321" y="328.05000000000007" as="targetPoint" />
            <Array as="points">
              <mxPoint x="1501.3500000000001" y="328" />
            </Array>
            <mxPoint x="1580.9" y="328" as="sourcePoint" />
          </mxGeometry>
        </mxCell>
        <mxCell id="ex-HV3NEJbvZ8xb9pAUJ-2" value="return" style="html=1;verticalAlign=bottom;endArrow=classic;dashed=1;endSize=8;labelBackgroundColor=none;fontFamily=Verdana;fontSize=12;edgeStyle=elbowEdgeStyle;elbow=vertical;endFill=1;entryX=1;entryY=0.587;entryDx=0;entryDy=0;entryPerimeter=0;" parent="1" edge="1">
          <mxGeometry relative="1" as="geometry">
            <mxPoint x="1466" y="529.0500000000001" as="targetPoint" />
            <Array as="points">
              <mxPoint x="1646.3500000000001" y="529" />
            </Array>
            <mxPoint x="1725.9" y="529" as="sourcePoint" />
          </mxGeometry>
        </mxCell>
        <mxCell id="ex-HV3NEJbvZ8xb9pAUJ-3" value="return" style="html=1;verticalAlign=bottom;endArrow=classic;dashed=1;endSize=8;labelBackgroundColor=none;fontFamily=Verdana;fontSize=12;edgeStyle=elbowEdgeStyle;elbow=vertical;endFill=1;entryX=0.86;entryY=0.596;entryDx=0;entryDy=0;entryPerimeter=0;" parent="1" edge="1">
          <mxGeometry relative="1" as="geometry">
            <mxPoint x="1464.6" y="579.4" as="targetPoint" />
            <Array as="points">
              <mxPoint x="1649.3500000000001" y="579" />
            </Array>
            <mxPoint x="1728.9" y="579" as="sourcePoint" />
          </mxGeometry>
        </mxCell>
        <mxCell id="ex-HV3NEJbvZ8xb9pAUJ-5" value="return" style="html=1;verticalAlign=bottom;endArrow=classic;dashed=1;endSize=8;labelBackgroundColor=none;fontFamily=Verdana;fontSize=12;edgeStyle=elbowEdgeStyle;elbow=vertical;endFill=1;entryX=0.86;entryY=0.596;entryDx=0;entryDy=0;entryPerimeter=0;" parent="1" edge="1">
          <mxGeometry relative="1" as="geometry">
            <mxPoint x="1465.6" y="629.4" as="targetPoint" />
            <Array as="points">
              <mxPoint x="1650.3500000000001" y="629" />
            </Array>
            <mxPoint x="1729.9" y="629" as="sourcePoint" />
          </mxGeometry>
        </mxCell>
      </root>
    </mxGraphModel>
  </diagram>
  <diagram id="c8Er_BMiKh1uftktMxLo" name="login-sd">
    <mxGraphModel dx="-1221" dy="254" grid="1" gridSize="10" guides="1" tooltips="1" connect="1" arrows="1" fold="1" page="1" pageScale="1" pageWidth="850" pageHeight="1100" math="0" shadow="0">
      <root>
        <mxCell id="0" />
        <mxCell id="1" parent="0" />
        <mxCell id="MxgjOGMUbtU3rlj31D9p-1" value="&amp;lt;&amp;lt;class&amp;gt;&amp;gt;&lt;br&gt;:LoginStorage" style="shape=umlLifeline;perimeter=lifelinePerimeter;whiteSpace=wrap;html=1;container=1;collapsible=0;recursiveResize=0;outlineConnect=0;rounded=1;shadow=0;comic=0;labelBackgroundColor=none;strokeWidth=1;fontFamily=Verdana;fontSize=12;align=center;" parent="1" vertex="1">
          <mxGeometry x="2010" y="100" width="100" height="440" as="geometry" />
        </mxCell>
        <mxCell id="MxgjOGMUbtU3rlj31D9p-2" value="" style="html=1;points=[];perimeter=orthogonalPerimeter;rounded=0;shadow=0;comic=0;labelBackgroundColor=none;strokeWidth=1;fontFamily=Verdana;fontSize=12;align=center;" parent="MxgjOGMUbtU3rlj31D9p-1" vertex="1">
          <mxGeometry x="45" y="125" width="10" height="275" as="geometry" />
        </mxCell>
        <mxCell id="MxgjOGMUbtU3rlj31D9p-3" value="load()" style="html=1;verticalAlign=bottom;endArrow=block;labelBackgroundColor=none;fontFamily=Verdana;fontSize=12;edgeStyle=elbowEdgeStyle;elbow=vertical;entryX=0.039;entryY=0.002;entryDx=0;entryDy=0;entryPerimeter=0;" parent="1" target="MxgjOGMUbtU3rlj31D9p-2" edge="1">
          <mxGeometry relative="1" as="geometry">
            <mxPoint x="1800" y="226" as="sourcePoint" />
            <mxPoint x="2000" y="225" as="targetPoint" />
          </mxGeometry>
        </mxCell>
        <mxCell id="MxgjOGMUbtU3rlj31D9p-4" value="&lt;b&gt;sd&lt;/b&gt; Login" style="shape=umlFrame;whiteSpace=wrap;html=1;pointerEvents=0;" parent="1" vertex="1">
          <mxGeometry x="1850" y="170" width="400" height="340" as="geometry" />
        </mxCell>
        <mxCell id="MxgjOGMUbtU3rlj31D9p-6" value="return" style="html=1;verticalAlign=bottom;endArrow=classic;dashed=1;endSize=8;labelBackgroundColor=none;fontFamily=Verdana;fontSize=12;edgeStyle=elbowEdgeStyle;elbow=vertical;endFill=1;exitX=-0.078;exitY=1.002;exitDx=0;exitDy=0;exitPerimeter=0;" parent="1" edge="1" source="MxgjOGMUbtU3rlj31D9p-2">
          <mxGeometry x="0.0009" relative="1" as="geometry">
            <mxPoint x="1800" y="500" as="targetPoint" />
            <Array as="points" />
            <mxPoint x="2010" y="500.16" as="sourcePoint" />
            <mxPoint as="offset" />
          </mxGeometry>
        </mxCell>
        <mxCell id="MxgjOGMUbtU3rlj31D9p-7" value="alt" style="shape=umlFrame;whiteSpace=wrap;html=1;pointerEvents=0;" parent="1" vertex="1">
          <mxGeometry x="1870" y="240" width="360" height="230" as="geometry" />
        </mxCell>
        <mxCell id="MxgjOGMUbtU3rlj31D9p-8" value="&lt;span style=&quot;color: rgb(0, 0, 0); font-family: Verdana; font-size: 12px; font-style: normal; font-variant-ligatures: normal; font-variant-caps: normal; font-weight: 400; letter-spacing: normal; orphans: 2; text-align: center; text-indent: 0px; text-transform: none; widows: 2; word-spacing: 0px; -webkit-text-stroke-width: 0px; background-color: rgb(251, 251, 251); text-decoration-thickness: initial; text-decoration-style: initial; text-decoration-color: initial; float: none; display: inline !important;&quot;&gt;[doesPasswordFileExist]&lt;/span&gt;" style="text;whiteSpace=wrap;html=1;" parent="1" vertex="1">
          <mxGeometry x="1880" y="270" width="70" height="40" as="geometry" />
        </mxCell>
        <mxCell id="MxgjOGMUbtU3rlj31D9p-9" value="" style="endArrow=none;dashed=1;html=1;rounded=0;" parent="1" edge="1">
          <mxGeometry width="50" height="50" relative="1" as="geometry">
            <mxPoint x="1800" y="540" as="sourcePoint" />
            <mxPoint x="1800" y="110" as="targetPoint" />
          </mxGeometry>
        </mxCell>
        <mxCell id="MxgjOGMUbtU3rlj31D9p-10" value="" style="endArrow=none;dashed=1;html=1;rounded=0;entryX=1.001;entryY=0.499;entryDx=0;entryDy=0;entryPerimeter=0;exitX=-0.002;exitY=0.495;exitDx=0;exitDy=0;exitPerimeter=0;" parent="1" edge="1">
          <mxGeometry width="50" height="50" relative="1" as="geometry">
            <mxPoint x="1870" y="300.00000000000006" as="sourcePoint" />
            <mxPoint x="2170.8999999999996" y="300.96" as="targetPoint" />
          </mxGeometry>
        </mxCell>
        <mxCell id="MxgjOGMUbtU3rlj31D9p-11" value="&lt;span style=&quot;color: rgb(0, 0, 0); font-family: Verdana; font-size: 12px; font-style: normal; font-variant-ligatures: normal; font-variant-caps: normal; font-weight: 400; letter-spacing: normal; orphans: 2; text-align: center; text-indent: 0px; text-transform: none; widows: 2; word-spacing: 0px; -webkit-text-stroke-width: 0px; background-color: rgb(251, 251, 251); text-decoration-thickness: initial; text-decoration-style: initial; text-decoration-color: initial; float: none; display: inline !important;&quot;&gt;[else]&lt;/span&gt;" style="text;whiteSpace=wrap;html=1;" parent="1" vertex="1">
          <mxGeometry x="1880" y="300" width="70" height="40" as="geometry" />
        </mxCell>
        <mxCell id="MxgjOGMUbtU3rlj31D9p-13" value="" style="html=1;points=[];perimeter=orthogonalPerimeter;rounded=0;shadow=0;comic=0;labelBackgroundColor=none;strokeWidth=1;fontFamily=Verdana;fontSize=12;align=center;" parent="1" vertex="1">
          <mxGeometry x="2060" y="330" width="10" height="80" as="geometry" />
        </mxCell>
        <mxCell id="MxgjOGMUbtU3rlj31D9p-14" value="" style="endArrow=classic;html=1;rounded=0;exitX=1.038;exitY=0.503;exitDx=0;exitDy=0;exitPerimeter=0;entryX=1.026;entryY=0.012;entryDx=0;entryDy=0;entryPerimeter=0;" parent="1" target="MxgjOGMUbtU3rlj31D9p-13" edge="1">
          <mxGeometry width="50" height="50" relative="1" as="geometry">
            <mxPoint x="2065.38" y="308.5750000000001" as="sourcePoint" />
            <mxPoint x="2070.33" y="240.00000000000006" as="targetPoint" />
            <Array as="points">
              <mxPoint x="2110" y="308.04" />
              <mxPoint x="2110" y="320.04" />
            </Array>
          </mxGeometry>
        </mxCell>
        <mxCell id="MxgjOGMUbtU3rlj31D9p-15" value="createNewUser()" style="text;html=1;align=center;verticalAlign=middle;resizable=0;points=[];autosize=1;strokeColor=none;fillColor=none;" parent="1" vertex="1">
          <mxGeometry x="2110" y="300" width="110" height="30" as="geometry" />
        </mxCell>
        <mxCell id="MxgjOGMUbtU3rlj31D9p-16" value="" style="html=1;points=[];perimeter=orthogonalPerimeter;rounded=0;shadow=0;comic=0;labelBackgroundColor=none;strokeWidth=1;fontFamily=Verdana;fontSize=12;align=center;" parent="1" vertex="1">
          <mxGeometry x="2065" y="360" width="10" height="30" as="geometry" />
        </mxCell>
        <mxCell id="MxgjOGMUbtU3rlj31D9p-17" value="" style="endArrow=classic;html=1;rounded=0;exitX=0.956;exitY=0.1;exitDx=0;exitDy=0;exitPerimeter=0;entryX=1.064;entryY=0.068;entryDx=0;entryDy=0;entryPerimeter=0;" parent="1" edge="1">
          <mxGeometry width="50" height="50" relative="1" as="geometry">
            <mxPoint x="2069.56" y="348" as="sourcePoint" />
            <mxPoint x="2075.64" y="360.00000000000006" as="targetPoint" />
            <Array as="points">
              <mxPoint x="2120" y="347" />
              <mxPoint x="2120" y="350" />
            </Array>
          </mxGeometry>
        </mxCell>
        <mxCell id="MxgjOGMUbtU3rlj31D9p-18" value="getNewUserPassword()" style="text;html=1;align=center;verticalAlign=middle;resizable=0;points=[];autosize=1;strokeColor=none;fillColor=none;" parent="1" vertex="1">
          <mxGeometry x="2075" y="350" width="150" height="30" as="geometry" />
        </mxCell>
        <mxCell id="MxgjOGMUbtU3rlj31D9p-19" value="" style="endArrow=classic;html=1;rounded=0;entryX=1.028;entryY=0.885;entryDx=0;entryDy=0;entryPerimeter=0;dashed=1;exitX=1.013;exitY=0.765;exitDx=0;exitDy=0;exitPerimeter=0;" parent="1" source="MxgjOGMUbtU3rlj31D9p-16" target="MxgjOGMUbtU3rlj31D9p-13" edge="1">
          <mxGeometry width="50" height="50" relative="1" as="geometry">
            <mxPoint x="2080" y="380" as="sourcePoint" />
            <mxPoint x="2080.64" y="393.00000000000006" as="targetPoint" />
            <Array as="points">
              <mxPoint x="2125" y="383" />
              <mxPoint x="2125" y="390" />
            </Array>
          </mxGeometry>
        </mxCell>
        <mxCell id="MxgjOGMUbtU3rlj31D9p-20" value="" style="endArrow=classic;html=1;rounded=0;exitX=0.591;exitY=1.001;exitDx=0;exitDy=0;exitPerimeter=0;entryX=1.186;entryY=0.767;entryDx=0;entryDy=0;entryPerimeter=0;dashed=1;" parent="1" source="MxgjOGMUbtU3rlj31D9p-13" target="MxgjOGMUbtU3rlj31D9p-2" edge="1">
          <mxGeometry width="50" height="50" relative="1" as="geometry">
            <mxPoint x="2070" y="400.5350000000001" as="sourcePoint" />
            <mxPoint x="2074.62" y="422.96" as="targetPoint" />
            <Array as="points">
              <mxPoint x="2110" y="410" />
              <mxPoint x="2110" y="420" />
            </Array>
          </mxGeometry>
        </mxCell>
        <mxCell id="MxgjOGMUbtU3rlj31D9p-21" value="passwordHash" style="text;html=1;align=center;verticalAlign=middle;resizable=0;points=[];autosize=1;strokeColor=none;fillColor=none;" parent="1" vertex="1">
          <mxGeometry x="2120" y="380" width="100" height="30" as="geometry" />
        </mxCell>
        <mxCell id="MxgjOGMUbtU3rlj31D9p-22" value="&lt;span style=&quot;color: rgb(0, 0, 0); font-family: Verdana; font-size: 12px; font-style: normal; font-variant-ligatures: normal; font-variant-caps: normal; font-weight: 400; letter-spacing: normal; orphans: 2; text-align: center; text-indent: 0px; text-transform: none; widows: 2; word-spacing: 0px; -webkit-text-stroke-width: 0px; white-space: nowrap; background-color: rgb(251, 251, 251); text-decoration-thickness: initial; text-decoration-style: initial; text-decoration-color: initial; display: inline !important; float: none;&quot;&gt;return&lt;/span&gt;" style="text;whiteSpace=wrap;html=1;" parent="1" vertex="1">
          <mxGeometry x="2090" y="425" width="70" height="40" as="geometry" />
        </mxCell>
        <mxCell id="MxgjOGMUbtU3rlj31D9p-23" value="" style="endArrow=none;dashed=1;html=1;dashPattern=1 3;strokeWidth=2;rounded=0;exitX=0.998;exitY=0.248;exitDx=0;exitDy=0;exitPerimeter=0;" parent="1" source="MxgjOGMUbtU3rlj31D9p-2" edge="1">
          <mxGeometry width="50" height="50" relative="1" as="geometry">
            <mxPoint x="2070" y="290" as="sourcePoint" />
            <mxPoint x="2271" y="289" as="targetPoint" />
          </mxGeometry>
        </mxCell>
        <mxCell id="6es2PKMka6jST-qQQeqE-1" value="" style="shape=note2;boundedLbl=1;whiteSpace=wrap;html=1;size=25;verticalAlign=top;align=center;flipV=1;" parent="1" vertex="1">
          <mxGeometry x="2270" y="240" width="200" height="30" as="geometry" />
        </mxCell>
        <mxCell id="6es2PKMka6jST-qQQeqE-2" value="" style="endArrow=none;dashed=1;html=1;dashPattern=1 3;strokeWidth=2;rounded=0;exitX=1.069;exitY=0.11;exitDx=0;exitDy=0;exitPerimeter=0;" parent="1" source="MxgjOGMUbtU3rlj31D9p-2" edge="1">
          <mxGeometry width="50" height="50" relative="1" as="geometry">
            <mxPoint x="2067" y="253" as="sourcePoint" />
            <mxPoint x="2270" y="253" as="targetPoint" />
          </mxGeometry>
        </mxCell>
        <mxCell id="6es2PKMka6jST-qQQeqE-3" value="Scanner to read file" style="text;html=1;align=center;verticalAlign=middle;resizable=0;points=[];autosize=1;strokeColor=none;fillColor=none;" parent="1" vertex="1">
          <mxGeometry x="2270" y="240" width="130" height="30" as="geometry" />
        </mxCell>
        <mxCell id="6es2PKMka6jST-qQQeqE-4" value="" style="shape=note2;boundedLbl=1;whiteSpace=wrap;html=1;size=25;verticalAlign=top;align=center;flipV=1;" parent="1" vertex="1">
          <mxGeometry x="2270" y="280" width="200" height="30" as="geometry" />
        </mxCell>
        <mxCell id="6es2PKMka6jST-qQQeqE-5" value="Update password in Storage" style="text;html=1;align=center;verticalAlign=middle;resizable=0;points=[];autosize=1;strokeColor=none;fillColor=none;" parent="1" vertex="1">
          <mxGeometry x="2270" y="280" width="170" height="30" as="geometry" />
        </mxCell>
        <mxCell id="6es2PKMka6jST-qQQeqE-7" value="" style="shape=note2;boundedLbl=1;whiteSpace=wrap;html=1;size=25;verticalAlign=top;align=center;flipV=1;" parent="1" vertex="1">
          <mxGeometry x="2270" y="450" width="200" height="30" as="geometry" />
        </mxCell>
        <mxCell id="6es2PKMka6jST-qQQeqE-8" value="Update password in Storage" style="text;html=1;align=center;verticalAlign=middle;resizable=0;points=[];autosize=1;strokeColor=none;fillColor=none;" parent="1" vertex="1">
          <mxGeometry x="2270" y="450" width="170" height="30" as="geometry" />
        </mxCell>
        <mxCell id="6es2PKMka6jST-qQQeqE-9" value="" style="endArrow=none;dashed=1;html=1;dashPattern=1 3;strokeWidth=2;rounded=0;entryX=-0.003;entryY=0.396;entryDx=0;entryDy=0;entryPerimeter=0;" parent="1" target="6es2PKMka6jST-qQQeqE-8" edge="1">
          <mxGeometry width="50" height="50" relative="1" as="geometry">
            <mxPoint x="2065" y="460" as="sourcePoint" />
            <mxPoint x="2115" y="410" as="targetPoint" />
          </mxGeometry>
        </mxCell>
        <mxCell id="6es2PKMka6jST-qQQeqE-11" value="" style="shape=note2;boundedLbl=1;whiteSpace=wrap;html=1;size=25;verticalAlign=top;align=center;flipV=1;" parent="1" vertex="1">
          <mxGeometry x="2270" y="325" width="200" height="30" as="geometry" />
        </mxCell>
        <mxCell id="6es2PKMka6jST-qQQeqE-12" value="FileWriter to create new file" style="text;html=1;align=center;verticalAlign=middle;resizable=0;points=[];autosize=1;strokeColor=none;fillColor=none;" parent="1" vertex="1">
          <mxGeometry x="2270" y="325" width="170" height="30" as="geometry" />
        </mxCell>
        <mxCell id="6es2PKMka6jST-qQQeqE-13" value="" style="endArrow=none;dashed=1;html=1;dashPattern=1 3;strokeWidth=2;rounded=0;exitX=1.069;exitY=0.11;exitDx=0;exitDy=0;exitPerimeter=0;" parent="1" target="6es2PKMka6jST-qQQeqE-12" edge="1">
          <mxGeometry width="50" height="50" relative="1" as="geometry">
            <mxPoint x="2070" y="339.68" as="sourcePoint" />
            <mxPoint x="2270" y="340" as="targetPoint" />
          </mxGeometry>
        </mxCell>
      </root>
    </mxGraphModel>
  </diagram>
</mxfile>
